<?xml version="1.0" standalone="no"?>
<!DOCTYPE svg PUBLIC "-//W3C//DTD SVG 20010904//EN"
 "http://www.w3.org/TR/2001/REC-SVG-20010904/DTD/svg10.dtd">
<svg version="1.0" xmlns="http://www.w3.org/2000/svg"
 width="512.000000pt" height="512.000000pt" viewBox="0 0 512.000000 512.000000"
 preserveAspectRatio="xMidYMid meet">

<g transform="translate(0.000000,512.000000) scale(0.100000,-0.100000)"
fill="#000000" stroke="none">
<path d="M2640 5104 c-200 -42 -390 -206 -461 -396 -19 -52 -25 -59 -43 -53
-122 38 -255 45 -366 19 -213 -50 -392 -220 -466 -444 -17 -51 -19 -120 -24
-1028 l-5 -972 -144 115 c-199 161 -282 200 -452 212 -297 21 -578 -181 -655
-472 -59 -222 2 -445 169 -619 114 -118 700 -681 805 -773 407 -355 928 -590
1482 -669 154 -21 739 -31 906 -15 402 39 751 187 1067 451 357 299 604 767
656 1242 7 63 11 475 11 1156 0 1021 -1 1062 -20 1136 -30 117 -83 209 -170
297 -89 89 -200 150 -320 175 -93 20 -231 13 -310 -14 l-55 -19 -26 67 c-50
128 -156 253 -272 320 -180 104 -418 111 -599 19 l-37 -19 -21 34 c-38 63
-145 153 -232 196 -136 67 -276 85 -418 54z m226 -433 c51 -23 99 -81 113
-137 8 -29 11 -316 11 -903 l0 -861 210 0 209 0 3 773 c3 854 0 808 68 874 98
95 251 77 327 -39 l28 -42 3 -783 2 -783 215 0 215 0 0 553 c0 534 1 553 21
597 42 94 107 134 205 128 78 -5 136 -41 171 -108 l24 -44 -4 -1106 c-3 -1227
2 -1134 -72 -1357 -73 -218 -183 -393 -359 -569 -216 -215 -444 -341 -736
-406 -100 -22 -122 -23 -505 -23 -444 0 -508 6 -759 69 -398 101 -760 303
-1072 598 -434 410 -701 675 -726 721 -52 93 -24 212 63 273 58 40 146 45 209
12 25 -13 251 -187 503 -388 252 -201 462 -366 467 -368 6 -2 11 528 12 1386
l3 1390 30 44 c78 111 234 125 322 30 61 -66 58 -27 63 -757 l5 -670 213 -3
212 -2 0 867 c0 575 4 881 11 906 13 49 63 105 114 128 51 24 129 24 181 0z"/>
</g>
</svg>
