<?xml version="1.0" standalone="no"?>
<!DOCTYPE svg PUBLIC "-//W3C//DTD SVG 20010904//EN"
 "http://www.w3.org/TR/2001/REC-SVG-20010904/DTD/svg10.dtd">
<svg version="1.0" xmlns="http://www.w3.org/2000/svg"
 width="512.000000pt" height="512.000000pt" viewBox="0 0 512.000000 512.000000"
 preserveAspectRatio="xMidYMid meet">

<g transform="translate(0.000000,512.000000) scale(0.100000,-0.100000)"
fill="#000000" stroke="none">
<path d="M1695 5105 c-147 -32 -283 -126 -352 -243 -14 -24 -28 -42 -32 -40
-3 2 -40 20 -81 41 -312 156 -685 22 -802 -289 l-23 -59 -3 -885 c-4 -1148 4
-1295 89 -1537 47 -133 102 -228 231 -401 65 -86 133 -186 152 -222 63 -121
67 -148 76 -545 6 -322 10 -369 29 -440 59 -223 199 -368 411 -428 170 -49
185 -50 950 -54 872 -5 995 2 1183 70 181 66 293 183 351 367 36 112 46 227
46 515 1 423 16 470 241 752 246 307 366 554 464 953 95 389 113 693 51 872
-63 181 -202 303 -428 377 l-67 22 -3 317 c-4 359 -6 370 -91 484 -110 146
-269 221 -467 220 -117 0 -230 -33 -312 -91 l-56 -39 -22 41 c-38 68 -131 151
-211 191 -228 112 -491 77 -667 -89 l-67 -62 -56 56 c-129 130 -343 188 -534
146z m308 -213 c76 -38 147 -110 171 -175 22 -57 89 -1156 74 -1220 -20 -91
-93 -174 -192 -217 -187 -83 -420 -10 -502 157 -27 55 -28 60 -61 597 -18 297
-32 568 -30 601 5 98 62 187 155 242 72 42 119 53 223 50 85 -2 103 -6 162
-35z m912 5 c75 -35 140 -97 171 -162 23 -49 24 -54 24 -363 l0 -314 -37 6
c-206 32 -282 36 -353 22 -90 -19 -158 -56 -237 -130 l-63 -58 0 30 c0 16 -9
178 -21 358 -11 181 -18 348 -15 371 11 88 82 184 168 229 67 35 112 44 208
41 79 -2 105 -8 155 -30z m819 -142 c109 -29 196 -98 240 -194 19 -43 21 -66
24 -320 2 -150 0 -277 -5 -281 -6 -5 -662 70 -690 79 -2 1 -3 127 -3 281 l0
280 42 46 c98 106 245 147 392 109z m-2654 -31 c64 -19 113 -49 159 -98 l35
-36 28 -458 c16 -251 26 -476 23 -500 -6 -55 -27 -95 -81 -152 -154 -165 -476
-139 -595 48 -16 25 -34 62 -41 82 -16 50 -23 800 -8 874 22 105 106 194 220
235 69 24 187 27 260 5z m2384 -894 c358 -43 674 -84 701 -91 77 -18 185 -72
237 -118 58 -52 103 -141 119 -236 42 -247 -87 -848 -254 -1180 -67 -135 -120
-216 -247 -375 -130 -163 -179 -238 -218 -333 -29 -68 -62 -202 -62 -247 l0
-20 -1304 0 -1305 0 -6 48 c-10 70 -41 183 -69 245 -29 66 -77 139 -203 305
-99 131 -170 262 -202 370 -47 159 -53 218 -58 637 -3 220 -3 417 -1 438 l3
39 26 -21 c113 -89 311 -131 465 -98 96 21 167 52 240 108 l61 46 27 -43 c40
-63 137 -148 208 -183 102 -50 177 -64 298 -58 168 8 286 61 394 177 l54 59
13 -31 c22 -53 85 -124 148 -165 63 -43 200 -97 289 -115 28 -6 52 -14 52 -18
0 -3 -14 -19 -31 -36 -108 -102 -199 -307 -240 -540 -25 -146 -38 -459 -20
-492 17 -32 67 -55 102 -47 54 12 66 42 73 173 9 181 25 335 42 408 47 206
134 353 265 449 l46 34 264 -44 c145 -25 278 -45 296 -45 50 0 88 38 88 90 0
72 -19 81 -276 130 -635 121 -704 136 -778 170 -138 64 -196 162 -196 330 0
83 4 103 28 155 36 77 68 118 120 153 49 34 91 50 131 51 16 1 322 -35 680
-79z m266 -2989 c0 -222 -14 -322 -55 -407 -66 -136 -195 -205 -430 -233 -120
-15 -1510 -15 -1625 0 -228 28 -351 92 -418 217 -51 95 -62 163 -69 405 l-6
217 1302 0 1301 0 0 -199z"/>
</g>
</svg>
