<?xml version="1.0" standalone="no"?>
<!DOCTYPE svg PUBLIC "-//W3C//DTD SVG 20010904//EN"
 "http://www.w3.org/TR/2001/REC-SVG-20010904/DTD/svg10.dtd">
<svg version="1.0" xmlns="http://www.w3.org/2000/svg"
 width="512.000000pt" height="512.000000pt" viewBox="0 0 512.000000 512.000000"
 preserveAspectRatio="xMidYMid meet">

<g transform="translate(0.000000,512.000000) scale(0.100000,-0.100000)"
fill="#000000" stroke="none">
<path d="M2440 5114 c-189 -35 -317 -89 -452 -192 -47 -36 -89 -57 -163 -81
-628 -206 -1134 -646 -1420 -1236 -266 -547 -313 -1169 -134 -1750 l31 -101
-111 -223 c-62 -122 -120 -246 -131 -274 -90 -247 -76 -504 42 -744 178 -361
584 -567 981 -498 188 33 358 119 493 250 l76 74 127 -43 c271 -93 489 -129
781 -129 212 0 361 16 540 59 102 24 307 87 343 106 15 7 33 -5 98 -66 377
-355 947 -351 1305 8 360 362 364 926 10 1303 l-74 79 40 114 c50 147 93 323
114 475 23 162 23 469 0 630 -35 247 -127 566 -173 601 -40 30 -105 7 -117
-40 -4 -16 5 -55 25 -108 147 -399 173 -896 68 -1311 -29 -115 -69 -237 -77
-237 -4 0 -63 56 -131 124 l-123 124 22 93 c135 575 -5 1189 -377 1649 -127
157 -329 333 -494 431 -66 39 -68 42 -74 87 -14 111 -49 229 -92 315 -14 28
-19 47 -12 47 22 0 274 -127 366 -183 273 -170 520 -414 700 -692 75 -114 98
-132 150 -110 62 26 58 68 -17 184 -187 288 -433 536 -720 723 -176 115 -398
220 -589 277 -51 16 -93 37 -137 71 -170 130 -332 188 -544 195 -69 2 -136 2
-150 -1z m328 -174 c217 -61 403 -219 496 -422 61 -131 68 -173 75 -481 l6
-279 25 -20 c30 -24 77 -18 103 13 14 18 17 43 17 165 0 79 4 144 8 144 33 0
267 -194 368 -304 236 -258 380 -557 446 -926 20 -113 17 -450 -6 -570 -9 -52
-19 -96 -21 -98 -1 -2 -27 9 -56 25 -108 56 -236 40 -326 -41 l-48 -44 -45 39
c-25 22 -67 46 -94 55 -120 40 -261 -24 -305 -137 -9 -25 -12 -26 -50 -19
-111 20 -230 -48 -271 -155 -17 -43 -15 -135 4 -179 9 -21 16 -40 16 -41 0 -1
-14 -8 -30 -15 -37 -15 -87 -71 -107 -119 -9 -20 -15 -63 -15 -97 0 -61 -1
-61 -36 -74 -55 -20 -118 -90 -136 -151 -20 -66 -20 -82 0 -148 12 -43 31 -69
96 -137 45 -46 79 -87 76 -89 -3 -3 -68 -15 -144 -26 -237 -36 -486 -20 -732
47 -55 14 -105 30 -113 34 -10 7 -4 26 27 92 37 78 39 88 39 178 0 98 -8 123
-75 226 -12 20 1 37 203 266 118 135 223 260 232 278 22 43 30 125 16 175 -43
161 -254 231 -385 127 -13 -10 -97 -101 -186 -203 -89 -101 -167 -188 -172
-194 -6 -5 38 87 97 205 115 230 130 280 106 366 -14 51 -71 118 -125 147 -63
33 -166 31 -228 -6 -61 -36 -82 -65 -163 -226 l-66 -133 -27 25 c-84 78 -214
83 -308 11 l-45 -35 -33 28 c-18 15 -40 33 -49 38 -39 24 -48 414 -14 600 79
428 286 790 601 1054 87 73 194 151 208 151 4 0 8 -103 8 -228 0 -245 8 -297
55 -372 52 -82 176 -160 254 -160 l29 0 4 -202 c3 -185 5 -207 25 -243 58
-108 169 -158 290 -131 30 7 32 5 51 -36 26 -59 89 -113 153 -132 29 -9 60
-16 69 -16 9 0 40 7 69 16 64 19 127 73 153 132 19 42 20 43 56 35 125 -24
236 29 286 138 18 38 25 45 41 38 35 -13 134 -10 173 7 47 19 97 67 125 119
20 37 22 57 25 240 3 192 3 202 -18 228 -28 35 -77 37 -108 5 -19 -22 -21 -36
-24 -216 l-3 -194 -28 -24 c-42 -36 -98 -33 -131 7 l-26 31 0 262 c0 251 -1
265 -21 290 -26 33 -79 36 -109 6 -19 -19 -20 -33 -20 -365 0 -368 -3 -390
-49 -415 -31 -16 -87 -12 -112 9 l-24 19 -5 365 c-5 341 -6 366 -24 386 -23
26 -81 28 -108 4 -17 -15 -18 -43 -19 -442 0 -303 -4 -436 -12 -461 -9 -25
-23 -40 -50 -53 -36 -18 -38 -18 -75 0 -26 13 -40 28 -49 53 -8 25 -12 158
-12 459 -1 380 -3 426 -18 443 -23 26 -84 24 -109 -3 -18 -20 -19 -45 -24
-386 l-5 -365 -24 -19 c-34 -27 -93 -25 -128 5 l-28 24 -5 572 c-5 551 -6 572
-24 586 -33 23 -82 18 -105 -12 -20 -26 -21 -38 -21 -320 0 -289 0 -294 -20
-294 -32 0 -95 36 -123 70 -46 54 -49 87 -45 459 5 390 10 419 88 571 115 219
332 373 585 414 64 10 241 -3 313 -24z m-1053 -363 c-35 -75 -68 -195 -80
-284 -7 -51 -7 -52 -75 -92 -171 -102 -379 -285 -505 -446 -230 -294 -362
-615 -406 -990 -11 -97 -7 -424 6 -470 5 -16 -4 -25 -50 -49 -64 -33 -89 -66
-154 -198 -24 -49 -46 -88 -50 -88 -5 0 -18 44 -30 98 -115 511 -53 1036 176
1497 113 226 243 406 422 586 138 138 219 205 362 299 90 60 380 210 406 210
7 0 -1 -28 -22 -73z m-7 -2182 c12 -14 22 -39 22 -56 0 -18 -64 -157 -166
-361 -151 -301 -166 -336 -161 -372 4 -26 16 -50 36 -70 27 -26 39 -31 80 -31
35 0 55 6 71 20 13 11 120 130 238 265 305 347 298 340 348 340 35 0 47 -5 68
-31 31 -36 33 -73 7 -114 -11 -16 -113 -136 -228 -265 -208 -234 -209 -235
-257 -242 -29 -4 -58 -16 -73 -30 -30 -28 -303 -568 -303 -600 0 -59 86 -90
127 -46 12 13 78 137 147 276 120 239 127 251 146 240 41 -26 74 -87 78 -146
4 -57 3 -60 -147 -359 -114 -229 -165 -319 -210 -375 -99 -123 -239 -214 -398
-260 -63 -18 -102 -23 -203 -22 -148 0 -215 16 -345 79 -158 77 -273 192 -350
350 -64 131 -79 197 -79 345 0 166 18 229 139 471 l96 191 35 -27 c52 -40 117
-59 180 -52 40 4 54 2 54 -7 0 -24 83 -108 125 -127 92 -42 231 -11 288 64 13
18 129 240 257 495 177 351 240 467 259 478 36 20 91 10 119 -21z m-953 -279
c39 -16 55 -42 55 -85 0 -37 -137 -317 -170 -346 -34 -31 -96 -27 -126 8 -39
46 -32 81 50 245 74 148 94 176 131 185 11 2 21 5 23 6 1 0 18 -5 37 -13z
m397 -7 c11 -6 26 -27 35 -47 l15 -36 -119 -239 c-66 -135 -128 -247 -142
-258 -36 -29 -87 -25 -122 10 -17 17 -29 40 -29 55 0 34 234 501 257 515 24
14 79 14 105 0z m2995 -50 c30 -11 466 -438 597 -585 96 -108 140 -178 178
-285 144 -409 -72 -855 -483 -994 -109 -37 -239 -51 -344 -36 -233 32 -370
119 -637 401 l-117 125 48 42 c27 23 58 61 69 83 l20 41 64 3 c76 3 129 28
181 85 20 22 41 59 48 83 6 24 13 48 14 55 2 6 19 14 37 18 113 25 195 119
205 237 5 46 9 58 23 58 21 0 88 43 113 72 17 21 18 20 86 -46 52 -49 76 -66
97 -66 38 0 74 36 74 75 0 27 -20 51 -147 177 -82 80 -157 148 -168 151 -59
15 -79 16 -122 5 -42 -10 -66 -29 -183 -143 -146 -143 -162 -155 -210 -155
-33 0 -96 25 -106 42 -8 13 510 533 551 553 36 17 73 19 112 4z m-433 -39 l31
-30 -65 -65 c-35 -36 -68 -65 -72 -65 -4 0 -19 16 -33 35 -39 50 -37 100 5
138 27 24 39 28 68 23 21 -3 49 -18 66 -36z m-280 -200 l71 -69 -68 -68 -68
-68 -69 71 c-64 65 -70 75 -70 113 0 58 33 91 91 91 38 0 48 -6 113 -70z m626
-230 c0 -23 -53 -60 -87 -60 -31 0 -29 8 9 47 37 38 78 45 78 13z m-810 -76
c37 -25 317 -303 351 -348 56 -75 23 -156 -63 -156 -42 0 -45 3 -235 193 -186
186 -193 194 -193 232 0 22 6 47 13 56 31 40 86 50 127 23z m604 -116 c9 -12
16 -40 16 -61 0 -86 -95 -118 -165 -56 l-36 32 53 29 c29 16 64 40 78 53 30
31 35 31 54 3z m-662 -305 c139 -139 153 -164 124 -222 -18 -33 -62 -51 -106
-43 -24 5 -223 190 -262 245 -31 44 -27 95 12 130 57 51 83 38 232 -110z
m-1246 -354 c319 -110 712 -129 1053 -49 l93 22 124 -123 c68 -68 124 -127
124 -131 0 -16 -275 -91 -431 -117 -210 -35 -519 -32 -745 9 -113 20 -318 76
-386 104 l-38 16 72 145 c40 80 73 145 74 145 0 0 27 -9 60 -21z"/>
</g>
</svg>
