<?xml version="1.0" standalone="no"?>
<!DOCTYPE svg PUBLIC "-//W3C//DTD SVG 20010904//EN"
 "http://www.w3.org/TR/2001/REC-SVG-20010904/DTD/svg10.dtd">
<svg version="1.0" xmlns="http://www.w3.org/2000/svg"
 width="512.000000pt" height="512.000000pt" viewBox="0 0 512.000000 512.000000"
 preserveAspectRatio="xMidYMid meet">

<g transform="translate(0.000000,512.000000) scale(0.100000,-0.100000)"
fill="#000000" stroke="none">
<path d="M1595 3980 c-143 -32 -567 -171 -650 -212 -335 -169 -563 -485 -614
-852 -14 -99 -14 -1045 -1 -1141 18 -124 50 -228 104 -340 154 -315 419 -524
775 -612 58 -15 174 -17 968 -20 984 -4 971 -5 1085 53 29 14 78 51 109 81
129 122 177 305 125 476 l-13 45 56 40 c149 105 226 296 189 467 -9 39 -19 80
-23 93 l-7 22 329 0 c183 0 354 5 384 10 140 27 280 136 340 264 87 187 51
396 -94 540 -113 114 -206 145 -427 147 -136 1 -142 2 -103 14 251 79 401 336
338 578 -47 180 -193 320 -372 358 -115 23 -154 14 -882 -210 -376 -116 -687
-211 -692 -211 -4 0 -25 32 -45 71 -89 169 -273 299 -487 343 -103 22 -288 20
-392 -4z m2493 -327 c41 -30 63 -66 69 -111 7 -55 -2 -85 -38 -127 -36 -41 -8
-31 -689 -235 -261 -79 -476 -144 -477 -145 -2 -1 8 -37 22 -81 17 -55 25
-103 25 -156 l0 -78 689 -2 c679 -3 690 -3 717 -24 53 -39 69 -71 69 -134 0
-63 -16 -95 -69 -134 -27 -21 -40 -21 -583 -24 l-555 -2 -232 90 c-145 57
-258 95 -303 103 -65 10 -72 14 -76 37 -13 67 -80 620 -76 624 2 2 315 99 694
215 741 227 752 229 813 184z m-2106 -3 c111 -34 192 -104 233 -203 15 -36
159 -1091 160 -1169 0 -77 -59 -138 -142 -145 -59 -6 -107 22 -140 82 -11 22
-67 220 -123 440 -63 245 -111 413 -124 433 -28 44 -96 76 -146 69 -43 -6
-306 -146 -357 -190 -62 -54 -66 -150 -10 -214 57 -65 134 -73 222 -24 48 27
54 29 59 13 3 -9 39 -147 81 -307 42 -159 90 -318 107 -353 43 -91 134 -184
223 -228 59 -29 87 -37 154 -41 44 -3 81 -9 81 -13 0 -3 -12 -17 -26 -31 -36
-33 -79 -114 -99 -183 -13 -43 -16 -85 -13 -155 3 -82 8 -106 36 -164 17 -38
46 -87 63 -108 l31 -39 -444 0 c-397 0 -453 2 -536 19 -238 49 -445 213 -552
435 -77 160 -75 144 -75 766 0 547 0 556 23 633 68 235 232 428 446 522 48 21
445 144 531 164 22 5 92 9 156 10 90 1 131 -4 181 -19z m1053 -1505 c170 -69
320 -135 333 -148 79 -74 63 -205 -31 -254 -64 -33 -103 -23 -426 105 -168 67
-309 126 -314 131 -5 5 1 24 17 48 31 47 62 130 71 196 5 35 12 47 24 47 10 0
157 -56 326 -125z m-151 -631 c133 -52 252 -105 264 -117 101 -94 46 -259 -91
-274 -40 -5 -73 6 -289 92 -134 54 -255 107 -271 117 -82 58 -81 197 2 254 67
45 112 37 385 -72z"/>
</g>
</svg>
